<?xml version="1.0" encoding="UTF-8"?>
<svg id="Layer_1" data-name="Layer 1" xmlns="http://www.w3.org/2000/svg" version="1.1" viewBox="0 0 2732 2048">
  <defs>
    <style>
      .cls-1 {
        fill: #fff;
        stroke-width: 0px;
      }
    </style>
  </defs>
  <path class="cls-1" d="M1318.7,838.6c15,14.3,13.6,38,13.3,43.4,0,0-2.1,36.7-61.9,95.2-8.3,8-11.3,11.2-19.1,17.8-39,33.9-81.9,63.1-126,90,.5,5,2.7,19.6,14.6,29.1.9.7,2,1.6,3.5,2.6,3.5,2.2,10.9,6.1,25.5,5.9,12.4-.1,33.6-3.2,59.7-10.8.6-.4,1.2-.2,1.3,0,.2.3,0,.9-.7,1.2-7.7,2.8-25.2,9.1-43.5,12.1-7.7,1.2-14.8,2.2-23.4,1.5-4.9-.4-9-1.3-11-1.8-17.9-4.8-28.9-28.8-31.1-33.7q-2.8-1.3-4.8-.3c-4.8,3-9.6,5.8-14.5,8.7q-35.4,20.6-46.7,20.6c.8,10.8,4.5,19.4,9.2,29.1,4.1,9.5,1.3,18.7-2.2,27.9-3.7,8.6-7.8,16.8-15,23h-2c1.5-4.9,3.5-9.2,5.9-13.7q7.9-14.7,8.5-30.9c-2.1-6.2-5.1-12-8.1-17.8-4.6-9.4-2.9-20.9.4-30.5,3.3-7.8,7.4-17.1,15.3-21.2q3.9-.4,7,0,.6,2.3,1,5c-.7,1-1.3,2-2,3h-4q-1.8,1.4-3.2,3.4c-.5.6-1,1.3-1.6,1.9q-1.4,1.7-1.2,3.7c14.3-11.6,32.4-26,51.8-25.3q2.2.3,4.3,1.1c4.7.3,7.7-2.4,11.5-5,5.1-3.3,10.2-6.8,15.3-10.1,20.8-13.8,41.8-27.5,61.6-42.7,13.3-9.8,41-33.1,49.8-41.6,8-7.3,12.1-11,14.2-13.2,0,0,5.3-5.3,10.3-11.2,31.3-36.6,62.7-72.3,33.7-109.8-10.2-11.2-24.3-13.8-38.4-16-16.8-2.6-30.1-1.5-33.5-1.1-11.7,1.1-57.2,8.1-82.6,15.1-87.9,24.4-206.2,124.6-224.4,141.6-3.3,3.1-15.9,15.3-24.8,25.2-5.6,6.2-11.6,13.3-11.6,13.3-36.3,43.6-82.4,96.1-38.3,149.6,35.9,26.3,115.3.8,149.4-21.7,4.9-3.2,7.8-4.2,13.6-3.3v2c-1.2.5-2.4.9-3.6,1.4-4.3,1.9-8.1,4.2-12,6.8-35.5,23.2-85.4,39-128,31.4-37.7-8.5-47.5-41-41.9-72.3,0,0,8-51.6,84.2-130.8,4.7-4.9,9.5-9.4,9.5-9.4,19.6-17.8,37.8-33.7,57.9-48.2,185.3-131.8,301.9-116.7,328.7-90.4ZM1099.6,1085.9c-11.8,5.3-23.4,12-32.6,21.1q2.9,1.3,5.2.2c14.1-7.2,28.7-14.1,41.8-23.2v-1c-5.5-.3-9.5.6-14.4,2.9Z"/>
  <path class="cls-1" d="M1612.8,803.8c11.9-.5,23.1,1,32.2,9.2,9,10.8,9.1,22.5,8,36-2,14-7.3,27.2-13,40-25.4,58.4-60.3,112.5-104,159,17.2-7.1,34.3-14.5,51.8-20.9,4.4-1.5,7.4-2.6,9.8-6.8.6-1.4,1.2-2.8,1.8-4.2.9-2.1,1.8-4.1,2.7-6.2,1.4-2.9,3.1-5.3,4.9-7.9,1.3.3,2.6.7,4,1-.6,2.4-1.3,4.7-2,7-1.4,3.8-3.2,7.4-5,11,5.3-1.7,10.7-3.3,16-5q20.2-6.3,28-6c-.3,1.3-.7,2.6-1,4-13.7,3.3-27,7.8-40.3,12.2q-2.7.8-5.7.8c-.3.9-.5,1.7-.8,2.6-5.3,14.6-12.7,25.3-16.2,40.4,1.7-.3,3.3-.7,5-1q-.7,1.9-2,4t-5,1q-1.8-1-3-3c-1.9-12.9,7.8-27.7,13-39-20.5,6.6-39.8,16.3-59.8,24.3-9.2,4.7-16.1,12.3-23.2,19.6q-12.2,12.4-18.3,17.6c-7.3,6.5-14.3,13.2-22,19.2-2.8,2.4-5.6,4.8-8.3,7.3-6,5.6-12.6,10.6-18.9,15.8-35.1,27.6-70.8,55.8-111.1,75.5-7.4,3.6-15.1,6.5-23.4,5.7q-2.2-1.2-4-3c-1.2-4.8-.6-9.7,1.9-14,1.6-2.3,3.3-4.2,5-6.4,7.5-8.9,15.7-15.6,27.1-18.6v3q-1.9,1.4-4.5,2.8c-10.8,6.2-20.7,15.3-24.1,27.6-.1.5-.2,1.1-.4,1.6,6.5,2.2,15.1-3,21.1-6,15.8-8.1,30.9-17.7,45.5-27.8,25.4-17.2,47.5-34.5,71.5-53.7,16.9-13.2,32.3-28.2,48.4-42.2,2.9-2.7,5.7-5.5,8.5-8.3-15.7,7.7-31,16.1-45.9,25.2-2.7,1-4.4.5-7.1-.2,1.2-3.5,1.7-3.7,4.9-5.3,4.5-2.4,9-4.8,13.5-7.2,8.9-5,17.5-10.5,26.6-15.2,10.2-5.5,20.8-10,29-18.3.8-.8,1.7-1.6,2.5-2.4,29.3-30.5,54.9-64.6,76-101.2,3.1-4.7,41-67,43.6-88.9,2.2-12.4,1.4-23,.4-30.1-1.9-5.8-4.4-10.8-12.7-15.1-23.7-10.7-79.6,6.2-118.9,27.7-57.9,29.8-130,80.5-149.7,145.3-2.2,7.3-2.5,15.9.7,23,4,6.6,10.1,9,17.3,11,5.7,1.1,11.3,1.4,17.1,1.6,2.8.1,5,.3,7.7,1.2v3q-31.5.9-42-8c-5.3-5.1-7.2-10.1-7.4-17.4-.6-28,18.2-56.6,36.1-77.1,11.3-13.3,23.5-25.9,37.4-36.6,21.8-18.4,46-33.4,71-47,33-18.3,71.4-36,109.7-36.3Z"/>
  <path class="cls-1" d="M1355,1049c-.4,5.6-4,8.6-7.6,12.6-1.9,1.9-3.7,3.4-5.7,5.1-4.6,4.3-4.8,12.3-5.6,18.3,5.6-4.2,11.1-8.3,16.7-12.5,2.4-1.5,4.7-2.6,7.3-3.5-.3.6-.7,1.3-1,1.9q-1.1,1.8-1,3.1c4.2-1.4,6.5-3.3,9.6-6.5q4.9-5.2,8.4-6.5,2.8.4,5,1c-.3,3.6-.7,5.6-2.9,8.6-2.8,2.2-4.9,3.3-8.1,4.6-4.2,2-5.8,3.7-7.6,8q-.9,2.5-1.3,4.8c.3.7.7,1.3,1,2,5.3-.5,9.6-1.9,14.4-4.3,12-6,23.4-14,33-23.4q1.7-1.3,4.7-1.3c-.5,3.9-1.4,5.8-4.2,8.6-4,4.3-9.8,11.2-9.8,17.4,2.6.3,5.3.7,8,1v2c-3.6,2.3-6.8,2.3-11,2q-2-2-2.2-5.9c0-2.7.3-4.4,1.2-7.1-11.2,6.6-21.4,16.2-35.1,16.5q-1.9-.5-3.8-2.2c-2.1-3.7-.5-6.9.2-10.9q.6-2.5,1.6-4.5h-7c-5.6,3.9-10.8,8.2-16.4,12.1-4.1,3-6.8,6.8-9.6,10.9-1.3-.3-2.6-.7-4-1q.2-2.2,1-5c.8-.6,1.5-1.1,2.3-1.7,5.3-4.6,6.7-11.6,7.7-18.3-6.7,6.7-14,12.5-21.8,17.9q-13.2,9.2-19.2,8.1c-2.4-2.4-2.5-3.8-3-7-.6.5-1.3,1-1.9,1.5-5.4,4.1-9.2,6.6-16.1,6.5q-2.5-.9-4-2v-3c-9.9,7.8-19,16.4-28.5,24.7-2.7,2.3-2.8,4-3.4,7.6-5.1,33.2-22.4,60.8-45.2,85-7.3,7.8-18.5,17.2-29.5,17.9q-5-.4-7.4-2.2c-3.4-4.9-3.8-9.3-3-15,3.4-16.5,14.6-29.3,26-41,4.8-5.5,11.2-13.1,14-15h2l1-3q1.6-1.5,3.5-3.2c4.4-3.8,8.6-7.7,12.8-11.7q16.9-16,21.6-19.1.6-1.8.7-4c0-.8.2-1.6.2-2.5,1-10.2,1.3-20.4,1-30.6-.6.3-1.2.6-1.8.9q-8.2,3.9-12.2,3.1c-.7-.7-1.3-1.3-2-2,0-5.2,2.4-8.4,5.4-12.5q1.6-1.5,4.6-1.5c-.6,4-2.8,6.7-5,10v2c7.5-3,11.7-5.2,15.2-12.7,2.7-5.6,6.4-9.9,10.8-14.3,0,0,1-.9,2.2-.6,1.3.3,1.7,1.5,1.8,1.6.2,1.4.4,3.6-.2,6.1-.6,2.6-2,4.9-4,7.7-2.2,2.6-4.6,4.6-7.4,6.4-4.6,5.4-2.8,17.4-3,24.1,0,2-.1,4-.2,6-.2,2.6-.6,5.1-1.2,7.7,6.7-5.5,13.4-11,20.1-16.6,1.8-1.5,3.7-2.9,5.6-4.3,6-4.4,9.7-9,13.2-15.5q1-1.8,3.1-4.6,2.8-.4,5,0,0,2-1.4,3.4c-.5.5-1.1,1.1-1.6,1.6-3.3,5.5-6,11.3-9,17,6.6-1.8,12.1-4.5,17.3-8.9q7-5.4,12.7-12.1c1,.3,2,.7,3,1-.3,4.7-2.5,6.8-5.5,10.2-2.2,2.7-3.3,5.5-4.5,8.8,13.8-5.8,26.3-15.6,37-26,.9-.8,1.8-1.7,2.8-2.5,6.3-7,10.4-19.3,21.2-19.5ZM1246.8,1064c-1.2,1.4-2.7,3.4-3.8,6-.5,1.1-.8,2.1-1,3.1.7-.3,2-.9,3.1-2.2,1-1.1,1.6-2.2,1.9-2.9,1.6-3,2.2-4.6,1.8-5-.3-.2-.9.1-2,1ZM1372,1068l1,2,1-2h-2ZM1243,1070v3-3ZM1230,1128c-6.9,6.4-13.5,13-20.7,19.2-5.7,5-11,10.4-16.4,15.7-23.5,22.9-29.2,26.6-39.1,57,.3,3.5,1.8,5.7,4.2,8.1,15.1-.6,27.7-14.8,37.4-25.2,16.9-18.7,32.6-45.4,35.6-70.8-.3-1.3-.6-2.7-1-4Z"/>
  <path class="cls-1" d="M1771,979c.8,5.6-2.4,8.7-5.5,12.9-2.9,3.6-6,7.1-9,10.6-6.5,7.6-11.9,16.1-17.4,24.4q1.4-.5,2.8-1,3.2-1,7.2-1c.3,1,.7,2,1,3-1.4,2.9-3,5.1-5.2,7.4-2.2,3.1-2.2,4.9-1.8,8.6,3.8,1.4,6,.5,9.6-.9q5.2-2.1,7.4-2.1c.2-.6.4-1.2.6-1.8,2.1-3.2,4.9-5,8.4-6.2,2,.3,4,.6,6,1q2.1-1.9,4-4h4c-.6,3.4-1.7,5.1-4,7.6q-2.3,2.5-4,5.4c9.8-3.2,17.4-8.7,24.9-15.6q1.5-1.2,3.1-2.4,2.2.3,4,1c-1.1,3.3-2.2,6.6-3,10,1.7-1.7,3.3-3.3,5-5,.5-.6,1.1-1.2,1.6-1.8q1.4-1.2,4.4-1.2c-.3,3-.7,5.9-1,9,3.2-2.5,6.5-4.9,9.7-7.3,3.2-2.2,4.2-2.7,8.3-2.7v5c7.4-3.4,15.3-5.9,21.9-10.8q3.1-2.2,5.9-1.9c.7.2,1.4.5,2.2.7l2-2h3c-.6,3.4-1.4,6-3,9,6.8-.5,12.7-2,19.1-4.2q2.9-.8,6.9-.8v2c-4.7,1.8-9.4,3.6-14.1,5.3-4,1.4-6.9,1.6-11.1,1.2-3.6,0-5.3,0-8.2,2.2-1.5,1.5-3,2.9-4.4,4.4-3.3,2.8-5.9,2.8-10.1,2.8-.8-3.3-1.1-4.7,0-8-.6.3-1.2.6-1.8.9-4.6,2.2-8,3.7-13.2,3.1v-3c-2.4,2-4.9,3.8-7.3,5.8-2.6,2-4.3,3.2-7.6,3.5-.7,0-1.4-.2-2.1-.3-.3-1.7-.7-3.3-1-5-2,1.9-3.9,3.7-6,5.6-.7.5-1.3.9-2,1.4-1-.3-2-.7-3-1v-8c-13.5,9.9-17.1,12.7-23.5,11.9q-2.5-.9-4.5-1.9c-.9.7-1.7,1.3-2.6,2-3.6,2.1-5.3,2.4-9.4,2-.3-1-.7-2-1-3-1.2.5-2.4,1-3.6,1.5-3.9,1.5-7.2,2-11.4,1.5-2.1-1.5-2.8-2.7-4-5-.5.4-.9.7-1.4,1.1-1.2.9-2.5,1.9-3.7,2.8q-1.9,1.1-5.9,1.1c.3-5.5,3.7-7.9,7.7-11.2q2.3-1.8,4.5-2.8c2.3-1.3,2.9-2.6,3.8-5-13,6.9-21.4,18.2-31,29-.5.6-.9,1.1-1.4,1.7q-1.6,1.3-5.6,1.3c.4-5.8,2.6-8.4,6.4-12.4,1.8-2,3.6-3.8,5.6-5.6h2v-2l2-2c-6.6,3.9-13.2,7.8-19.8,11.6-2.4,1.5-4.5,3.2-6.7,5-3.5,2.8-6,4.3-10.6,4.4-.9-3.4-1-5.6,0-9-3.1,1.8-6.1,3.6-9.1,5.4-.9.5-1.7,1-2.6,1.5-5.5,3.4-8.8,6.5-12,12.2q-1.3,1.9-4.7,3.5l-2.6.4q-2-2-2.1-4.2c1.3-3.2,2.1-3.4,5-5.1,3.8-2.6,4.8-4.9,5.8-9.4.5-3.1,1-6.1,1.4-9.2-19.3,9.6-24,11.9-33.3,14.1-4.4,1.5-8,4.1-11.7,6.9-2.7,1.4-5,1.1-8,1q-1-1-1.3-4.6c0-4.7,1.6-7.9,4-11.8.3-.6.7-1.2,1-1.9,1.7-3,2.7-4.5,6.1-5.6.7,0,1.5,0,2.2,0-8.4,13.4-12.9,23.1-.8,14.4-.3-4.5.9-6,3.8-9.4.8-.8,2.5-2.2,5-2.8,1.2-.3,4.4-1,5.8.7,1.2,1.4.4,3.8,0,4.9-.5,1.5-1.3,2.6-1.9,3.2,7-3.1,24.5-10.2,27.8-12.4,3.4-2.3,7.4-6.1,11.7-9.4,1.5-1.4,4.1-1.5,6.5-1.2-.4,2.6-.7,3.7-2.7,5.5-.7.5-1.4.9-2.1,1.4-3.3,2.4-5.6,4.1-7.1,8.1-.4,3.3-.7,6.6-1,10,6.9-4.1,13.7-8.2,20.5-12.4,2.1-1.4,3.8-2.8,5.5-4.6q.9.5,1.8,1.1t4.2.4,4.2.7q3,1.2,6.2-.7c18.7-10.7,32.8-27.2,44.5-44.9,3.5-5.3,7.3-10.3,11.2-15.3,2-2.4,2.8-3.3,5.9-3.3ZM1858,1023c-5.1,3.6-9.2,7-13,12,1,.3,2,.7,3,1,4.7-3.1,8.7-7.5,12-12l-2-1ZM1770,1038c-1,.3-2,.7-3,1v2q-1,.4-1.9.9-2.2,1-3.1,3.1c3.5-1.2,6.1-2.7,9-5-.3-.7-.7-1.3-1-2ZM1693,1046q-1.6,2.2-3.1,5c-1,1.6-1.9,3.3-2.9,5,4,0,5.8-1.7,9-4-.3-2-.7-4-1-6h-2ZM1631,1050q-3.7,2.5-5.8,6.2,0,.9-.2,1.8c3.8-1.5,5.6-3.8,8-7l-2-1Z"/>
  <path class="cls-1" d="M1432,1038h4c.4,2,.7,4,1,6q-1,1-3.6,1.1t-2.4,0c0-2,0-4,0-6l1-1Z"/>
  <path class="cls-1" d="M1897,1028h5v5h-5v-5Z"/>
  <path class="cls-1" d="M1245.1,908"/>
</svg>